<svg width="35" height="35" viewBox="0 0 35 35" fill="none" xmlns="http://www.w3.org/2000/svg">
<rect x="0.372905" y="0.372905" width="33.5615" height="33.5615" rx="16.7807" fill="white" fill-opacity="0.05" stroke="white" stroke-width="0.74581"/>
<g clip-path="url(#clip0_210_3)">
<path d="M24.2381 12.3508C23.0906 11.8362 21.8606 11.4558 20.5744 11.2395C20.5629 11.2373 20.551 11.2387 20.5404 11.2435C20.5298 11.2483 20.521 11.2563 20.5151 11.2664C20.3576 11.5416 20.1821 11.9003 20.0591 12.1837C18.6949 11.981 17.308 11.981 15.9439 12.1837C15.8069 11.8696 15.6524 11.5634 15.4811 11.2664C15.4753 11.2562 15.4665 11.248 15.4559 11.243C15.4454 11.2379 15.4335 11.2362 15.4219 11.238C14.1364 11.4543 12.9064 11.8347 11.7581 12.35C11.7482 12.3541 11.7399 12.3612 11.7341 12.3702C9.40011 15.7822 8.76036 19.11 9.07461 22.3961C9.07548 22.4041 9.078 22.4119 9.08199 22.419C9.08599 22.426 9.09139 22.4322 9.09786 22.4371C10.4602 23.4234 11.9796 24.1747 13.5926 24.6596C13.6039 24.6631 13.6159 24.663 13.6271 24.6596C13.6384 24.6561 13.6483 24.6494 13.6556 24.6402C14.0021 24.1778 14.3111 23.6893 14.5751 23.1762C14.5909 23.1464 14.5759 23.1106 14.5444 23.0986C14.0599 22.9172 13.5904 22.6982 13.1404 22.4438C13.1323 22.4392 13.1255 22.4327 13.1205 22.4248C13.1156 22.417 13.1127 22.408 13.1121 22.3988C13.1115 22.3896 13.1132 22.3803 13.1171 22.3719C13.121 22.3635 13.1269 22.3562 13.1344 22.3506C13.2289 22.2812 13.3234 22.2089 13.4134 22.1365C13.4215 22.13 13.4312 22.1259 13.4415 22.1246C13.4519 22.1233 13.4624 22.1248 13.4719 22.1291C16.4171 23.4447 19.6069 23.4447 22.5176 22.1291C22.5271 22.1246 22.5377 22.1228 22.5482 22.124C22.5587 22.1252 22.5686 22.1293 22.5769 22.1358C22.6669 22.2089 22.7606 22.2812 22.8559 22.3506C22.8634 22.356 22.8694 22.3633 22.8734 22.3716C22.8774 22.38 22.8793 22.3892 22.8788 22.3984C22.8784 22.4076 22.8756 22.4166 22.8708 22.4245C22.866 22.4325 22.8594 22.4391 22.8514 22.4438C22.4029 22.7004 21.9364 22.9174 21.4466 23.0979C21.4391 23.1006 21.4322 23.1049 21.4265 23.1104C21.4208 23.116 21.4163 23.1227 21.4134 23.1301C21.4105 23.1375 21.4092 23.1455 21.4096 23.1534C21.4101 23.1614 21.4122 23.1691 21.4159 23.1762C21.6859 23.6886 21.9949 24.1763 22.3346 24.6395C22.3417 24.649 22.3515 24.6561 22.3628 24.6598C22.3741 24.6636 22.3862 24.6637 22.3976 24.6604C24.0134 24.1768 25.5353 23.4251 26.8991 22.4371C26.9058 22.4325 26.9113 22.4265 26.9155 22.4195C26.9196 22.4126 26.9222 22.4048 26.9231 22.3968C27.2981 18.5977 26.2946 15.2967 24.2614 12.3716C24.2564 12.3621 24.2481 12.3547 24.2381 12.3508ZM15.0154 20.3951C14.1289 20.3951 13.3976 19.5978 13.3976 18.62C13.3976 17.6415 14.1146 16.845 15.0154 16.845C15.9229 16.845 16.6474 17.6483 16.6331 18.62C16.6331 19.5985 15.9161 20.3951 15.0154 20.3951V20.3951ZM20.9966 20.3951C20.1094 20.3951 19.3789 19.5978 19.3789 18.62C19.3789 17.6415 20.0951 16.845 20.9966 16.845C21.9041 16.845 22.6286 17.6483 22.6144 18.62C22.6144 19.5985 21.9049 20.3951 20.9966 20.3951V20.3951Z" fill="white"/>
</g>
<defs>
<clipPath id="clip0_210_3">
<rect width="18" height="17.8994" fill="white" transform="translate(9 9)"/>
</clipPath>
</defs>
</svg>
