<svg width="41" height="41" viewBox="0 0 41 41" fill="none" xmlns="http://www.w3.org/2000/svg">
<rect x="1.96958" y="4.8646" width="33.5615" height="33.5615" rx="16.7807" fill="white" fill-opacity="0.05" stroke="white" stroke-width="0.74581"/>
<g filter="url(#filter0_f_103_344)">
<rect x="3.4608" y="3.37291" width="33.5615" height="33.5615" rx="16.7807" stroke="white" stroke-width="0.74581"/>
</g>
<g clip-path="url(#clip0_103_344)">
<path d="M26.5301 14.5549C25.3826 14.0403 24.1526 13.6599 22.8664 13.4436C22.8549 13.4414 22.843 13.4428 22.8324 13.4476C22.8218 13.4524 22.813 13.4604 22.8071 13.4705C22.6496 13.7457 22.4741 14.1044 22.3511 14.3878C20.9869 14.1851 19.6 14.1851 18.2359 14.3878C18.0989 14.0737 17.9444 13.7675 17.7731 13.4705C17.7673 13.4603 17.7585 13.4521 17.7479 13.4471C17.7373 13.442 17.7255 13.4403 17.7139 13.4421C16.4284 13.6584 15.1984 14.0388 14.0501 14.5541C14.0402 14.5582 14.0318 14.5653 14.0261 14.5743C11.6921 17.9863 11.0524 21.3141 11.3666 24.6002C11.3675 24.6082 11.37 24.616 11.374 24.6231C11.378 24.6301 11.3834 24.6363 11.3899 24.6412C12.7521 25.6275 14.2716 26.3788 15.8846 26.8637C15.8958 26.8672 15.9079 26.8671 15.9191 26.8637C15.9304 26.8602 15.9403 26.8535 15.9476 26.8443C16.2941 26.3819 16.6031 25.8934 16.8671 25.3803C16.8829 25.3505 16.8679 25.3147 16.8364 25.3027C16.3519 25.1213 15.8824 24.9024 15.4324 24.6479C15.4243 24.6433 15.4175 24.6368 15.4125 24.6289C15.4076 24.6211 15.4047 24.6121 15.4041 24.6029C15.4035 24.5937 15.4052 24.5844 15.4091 24.576C15.413 24.5676 15.4189 24.5603 15.4264 24.5547C15.5209 24.4853 15.6154 24.413 15.7054 24.3406C15.7135 24.3341 15.7232 24.33 15.7335 24.3287C15.7439 24.3274 15.7544 24.3289 15.7639 24.3332C18.7091 25.6488 21.8989 25.6488 24.8096 24.3332C24.8191 24.3287 24.8297 24.3269 24.8402 24.3281C24.8507 24.3293 24.8606 24.3334 24.8689 24.3399C24.9589 24.413 25.0526 24.4853 25.1479 24.5547C25.1554 24.5601 25.1614 24.5674 25.1654 24.5757C25.1694 24.5841 25.1713 24.5933 25.1708 24.6025C25.1704 24.6117 25.1676 24.6207 25.1628 24.6286C25.158 24.6366 25.1513 24.6432 25.1434 24.6479C24.6949 24.9045 24.2284 25.1215 23.7386 25.302C23.7311 25.3047 23.7242 25.309 23.7185 25.3145C23.7128 25.3201 23.7083 25.3268 23.7054 25.3342C23.7025 25.3416 23.7012 25.3496 23.7016 25.3575C23.702 25.3655 23.7042 25.3732 23.7079 25.3803C23.9779 25.8927 24.2869 26.3804 24.6266 26.8436C24.6337 26.8531 24.6435 26.8602 24.6548 26.8639C24.6661 26.8677 24.6782 26.8678 24.6896 26.8645C26.3054 26.3809 27.8273 25.6292 29.1911 24.6412C29.1978 24.6366 29.2033 24.6306 29.2075 24.6236C29.2116 24.6167 29.2142 24.6089 29.2151 24.6009C29.5901 20.8018 28.5866 17.5008 26.5534 14.5757C26.5484 14.5662 26.5401 14.5588 26.5301 14.5549ZM17.3074 22.5992C16.4209 22.5992 15.6896 21.8019 15.6896 20.8241C15.6896 19.8456 16.4066 19.0491 17.3074 19.0491C18.2149 19.0491 18.9394 19.8524 18.9251 20.8241C18.9251 21.8026 18.2081 22.5992 17.3074 22.5992ZM23.2886 22.5992C22.4014 22.5992 21.6709 21.8019 21.6709 20.8241C21.6709 19.8456 22.3871 19.0491 23.2886 19.0491C24.1961 19.0491 24.9206 19.8524 24.9064 20.8241C24.9064 21.8026 24.1969 22.5992 23.2886 22.5992Z" fill="white"/>
</g>
<defs>
<filter id="filter0_f_103_344" x="0.10465" y="0.0167599" width="40.2741" height="40.2739" filterUnits="userSpaceOnUse" color-interpolation-filters="sRGB">
<feFlood flood-opacity="0" result="BackgroundImageFix"/>
<feBlend mode="normal" in="SourceGraphic" in2="BackgroundImageFix" result="shape"/>
<feGaussianBlur stdDeviation="1.49162" result="effect1_foregroundBlur_103_344"/>
</filter>
<clipPath id="clip0_103_344">
<rect width="18" height="17.8994" fill="white" transform="translate(11.292 11.2039)"/>
</clipPath>
</defs>
</svg>
