<svg width="16" height="16" viewBox="0 0 16 16" fill="none" xmlns="http://www.w3.org/2000/svg">
<g opacity="0.3">
<path d="M7.52671 10.1933C7.49804 10.225 7.47132 10.2584 7.44671 10.2933C7.42148 10.3305 7.4013 10.3708 7.38671 10.4133C7.36749 10.4511 7.35401 10.4915 7.34671 10.5333C7.34344 10.5777 7.34344 10.6223 7.34671 10.6666C7.34446 10.7541 7.36272 10.8409 7.40004 10.92C7.42999 11.0027 7.47775 11.0778 7.53997 11.1401C7.60218 11.2023 7.67731 11.25 7.76004 11.28C7.83984 11.3153 7.92613 11.3335 8.01338 11.3335C8.10062 11.3335 8.18691 11.3153 8.26671 11.28C8.34944 11.25 8.42457 11.2023 8.48679 11.1401C8.549 11.0778 8.59677 11.0027 8.62671 10.92C8.65631 10.8389 8.6699 10.7529 8.66671 10.6666C8.66722 10.5789 8.6504 10.4919 8.61722 10.4107C8.58405 10.3295 8.53516 10.2556 8.47338 10.1933C8.4114 10.1308 8.33767 10.0812 8.25643 10.0474C8.17519 10.0135 8.08805 9.99611 8.00004 9.99611C7.91204 9.99611 7.8249 10.0135 7.74366 10.0474C7.66242 10.0812 7.58869 10.1308 7.52671 10.1933ZM8.00004 1.33331C6.6815 1.33331 5.39257 1.72431 4.29624 2.45685C3.19991 3.18939 2.34543 4.23058 1.84085 5.44876C1.33626 6.66693 1.20424 8.00738 1.46148 9.30058C1.71871 10.5938 2.35365 11.7817 3.286 12.714C4.21835 13.6464 5.40623 14.2813 6.69944 14.5385C7.99265 14.7958 9.33309 14.6638 10.5513 14.1592C11.7694 13.6546 12.8106 12.8001 13.5432 11.7038C14.2757 10.6075 14.6667 9.31852 14.6667 7.99998C14.6667 7.1245 14.4943 6.25759 14.1592 5.44876C13.8242 4.63992 13.3331 3.90499 12.7141 3.28593C12.095 2.66688 11.3601 2.17581 10.5513 1.84078C9.74243 1.50575 8.87552 1.33331 8.00004 1.33331ZM8.00004 13.3333C6.94521 13.3333 5.91406 13.0205 5.037 12.4345C4.15994 11.8484 3.47635 11.0155 3.07269 10.041C2.66902 9.06642 2.5634 7.99406 2.76919 6.9595C2.97498 5.92493 3.48293 4.97462 4.22881 4.22874C4.97469 3.48286 5.925 2.97491 6.95956 2.76912C7.99413 2.56334 9.06648 2.66895 10.041 3.07262C11.0156 3.47629 11.8485 4.15988 12.4345 5.03694C13.0206 5.914 13.3334 6.94515 13.3334 7.99998C13.3334 9.41447 12.7715 10.771 11.7713 11.7712C10.7711 12.7714 9.41453 13.3333 8.00004 13.3333ZM8.00004 4.66665C7.64875 4.66642 7.3036 4.75873 6.99932 4.93427C6.69503 5.10982 6.44236 5.36242 6.26671 5.66665C6.21847 5.74253 6.18609 5.82738 6.17149 5.9161C6.1569 6.00482 6.1604 6.09557 6.1818 6.1829C6.20319 6.27024 6.24202 6.35234 6.29597 6.42427C6.34991 6.4962 6.41785 6.55648 6.49569 6.60148C6.57353 6.64647 6.65968 6.67526 6.74893 6.6861C6.83819 6.69694 6.92872 6.68962 7.01507 6.66456C7.10142 6.63951 7.18181 6.59725 7.25141 6.54033C7.321 6.4834 7.37837 6.41298 7.42004 6.33331C7.47878 6.23158 7.56336 6.14717 7.66521 6.08863C7.76706 6.0301 7.88257 5.99951 8.00004 5.99998C8.17685 5.99998 8.34642 6.07022 8.47145 6.19524C8.59647 6.32027 8.66671 6.48984 8.66671 6.66665C8.66671 6.84346 8.59647 7.01303 8.47145 7.13805C8.34642 7.26308 8.17685 7.33331 8.00004 7.33331C7.82323 7.33331 7.65366 7.40355 7.52864 7.52858C7.40361 7.6536 7.33338 7.82317 7.33338 7.99998V8.66665C7.33338 8.84346 7.40361 9.01303 7.52864 9.13805C7.65366 9.26308 7.82323 9.33331 8.00004 9.33331C8.17685 9.33331 8.34642 9.26308 8.47145 9.13805C8.59647 9.01303 8.66671 8.84346 8.66671 8.66665V8.54665C9.10762 8.38666 9.47828 8.0768 9.71389 7.67123C9.9495 7.26565 10.0351 6.79017 9.95564 6.32791C9.87621 5.86564 9.63684 5.44599 9.27937 5.14232C8.9219 4.83865 8.46907 4.67029 8.00004 4.66665Z" fill="white"/>
</g>
</svg>
