<svg width="18" height="18" viewBox="0 0 18 18" fill="none" xmlns="http://www.w3.org/2000/svg">
<path d="M8.90741 1.06889C10.7158 1.07013 12.4682 1.69642 13.8677 2.84168C15.2672 3.98693 16.2278 5.58075 16.5868 7.35313C16.9458 9.12552 16.6811 10.9675 15.8376 12.5671C14.9941 14.1667 13.6236 15.4256 11.9582 16.1304C10.0425 16.9395 7.88391 16.9545 5.9572 16.1721C4.03048 15.3896 2.49351 13.8739 1.68439 11.9582C0.875272 10.0425 0.860286 7.88391 1.64273 5.9572C2.42518 4.03048 3.94096 2.49351 5.85662 1.68439C6.8218 1.27612 7.85943 1.06678 8.90741 1.06889ZM8.90741 0C3.98802 0 0 3.98802 0 8.90741C0 13.8268 3.98802 17.8148 8.90741 17.8148C13.8268 17.8148 17.8148 13.8268 17.8148 8.90741C17.8148 3.98802 13.8268 0 8.90741 0Z" fill="white"/>
<path d="M11.6885 14.1441H7.05665V13.916L7.39887 13.9018C7.67465 13.8733 7.84092 13.8068 7.89769 13.7022C7.95446 13.5977 7.98302 13.3697 7.98338 13.0182L7.99763 12.3626V8.95638L7.98338 8.37206C7.96426 8.14403 7.93575 7.973 7.89787 7.85899C7.85998 7.74497 7.68896 7.67372 7.3848 7.64521L7 7.61671V7.38868H10.7479V12.3626L10.7621 13.0182C10.7621 13.3602 10.7906 13.5859 10.8476 13.6951C10.9047 13.8044 11.0709 13.8733 11.3465 13.9018L11.6885 13.916V14.1441ZM7.95452 5.00862C7.95452 4.63807 8.09056 4.32216 8.36266 4.06087C8.63475 3.79959 8.96189 3.66895 9.34407 3.66895C9.736 3.66895 10.0678 3.79484 10.3394 4.04662C10.611 4.2984 10.7472 4.61907 10.7479 5.00862C10.7479 5.38867 10.6117 5.70934 10.3394 5.97062C10.0671 6.2319 9.73529 6.36255 9.34407 6.36255C8.962 6.36255 8.63487 6.2319 8.36266 5.97062C8.09044 5.70934 7.9544 5.38867 7.95452 5.00862Z" fill="white"/>
</svg>
