<svg width="35" height="35" viewBox="0 0 35 35" fill="none" xmlns="http://www.w3.org/2000/svg">
<rect x="0.372905" y="0.372905" width="33.5615" height="33.5615" rx="16.7807" fill="white" fill-opacity="0.05" stroke="white" stroke-width="0.74581"/>
<path d="M23.0064 13.4267L24.084 12.3913V12.1646H20.3521L17.6926 18.8161L14.6674 12.1646H10.7545V12.3913L12.0131 13.9136C12.1361 14.0261 12.1994 14.1913 12.1836 14.3565V20.3384C12.2223 20.5546 12.1537 20.7743 12.0025 20.9308L10.584 22.6587V22.8819H14.6023V22.6552L13.1855 20.9325C13.1096 20.8554 13.0525 20.7619 13.0187 20.6592C12.9849 20.5564 12.9752 20.4472 12.9904 20.3401V15.1651L16.5184 22.8854H16.9279L19.9619 15.1651V21.3157C19.9619 21.4774 19.9619 21.5108 19.8564 21.6181L18.7648 22.678V22.9048H24.0594V22.678L23.0064 21.6427C22.915 21.5724 22.8676 21.4546 22.8869 21.3403V13.729C22.8778 13.6725 22.8841 13.6146 22.9051 13.5614C22.9262 13.5082 22.9612 13.4617 23.0064 13.4267V13.4267Z" fill="white"/>
</svg>
