<svg width="41" height="41" viewBox="0 0 41 41" fill="none" xmlns="http://www.w3.org/2000/svg">
<rect x="2.37291" y="4.8646" width="33.5615" height="33.5615" rx="16.7807" fill="white" fill-opacity="0.05" stroke="white" stroke-width="0.74581"/>
<g filter="url(#filter0_f_103_330)">
<rect x="3.86412" y="3.37291" width="33.5615" height="33.5615" rx="16.7807" stroke="white" stroke-width="0.74581"/>
</g>
<g clip-path="url(#clip0_103_330)">
<path d="M27.9367 16.3781C27.3105 16.654 26.6377 16.8405 25.9305 16.9248C26.6602 16.4905 27.2062 15.8071 27.4665 15.0021C26.7809 15.407 26.0305 15.6921 25.248 15.8448C24.7218 15.2861 24.0248 14.9158 23.2652 14.7914C22.5057 14.6669 21.7261 14.7953 21.0474 15.1566C20.3688 15.5179 19.8291 16.092 19.5121 16.7895C19.1951 17.4871 19.1186 18.2693 19.2945 19.0145C17.9052 18.9452 16.5462 18.5861 15.3055 17.9606C14.0649 17.3352 12.9704 16.4573 12.093 15.3839C11.793 15.8985 11.6205 16.4952 11.6205 17.1306C11.6201 17.7026 11.7618 18.2659 12.0329 18.7704C12.304 19.275 12.6961 19.7052 13.1745 20.0229C12.6197 20.0053 12.0771 19.8562 11.592 19.588V19.6328C11.5919 20.4351 11.871 21.2127 12.3819 21.8337C12.8927 22.4547 13.6039 22.8807 14.3947 23.0397C13.8801 23.1782 13.3405 23.1986 12.8167 23.0993C13.0398 23.7897 13.4745 24.3933 14.0598 24.8258C14.645 25.2583 15.3517 25.498 16.0807 25.5113C14.8431 26.4774 13.3146 27.0015 11.7412 26.9992C11.4625 26.9992 11.184 26.9831 10.9072 26.9507C12.5043 27.9718 14.3635 28.5138 16.2622 28.5117C22.6897 28.5117 26.2035 23.2179 26.2035 18.6267C26.2035 18.4775 26.1997 18.3269 26.193 18.1777C26.8764 17.6862 27.4664 17.0776 27.9352 16.3803L27.9367 16.3781Z" fill="white"/>
</g>
<defs>
<filter id="filter0_f_103_330" x="0.507971" y="0.0167599" width="40.2741" height="40.2739" filterUnits="userSpaceOnUse" color-interpolation-filters="sRGB">
<feFlood flood-opacity="0" result="BackgroundImageFix"/>
<feBlend mode="normal" in="SourceGraphic" in2="BackgroundImageFix" result="shape"/>
<feGaussianBlur stdDeviation="1.49162" result="effect1_foregroundBlur_103_330"/>
</filter>
<clipPath id="clip0_103_330">
<rect width="18" height="17.8994" fill="white" transform="translate(10.2041 12.6956)"/>
</clipPath>
</defs>
</svg>
