<svg width="35" height="35" viewBox="0 0 35 35" fill="none" xmlns="http://www.w3.org/2000/svg">
<rect x="0.372905" y="0.372905" width="33.5615" height="33.5615" rx="16.7807" fill="white" fill-opacity="0.05" stroke="white" stroke-width="0.74581"/>
<g clip-path="url(#clip0_103_475)">
<path d="M25.9367 11.8864C25.3105 12.1623 24.6377 12.3488 23.9305 12.4331C24.6602 11.9988 25.2062 11.3154 25.4665 10.5104C24.7809 10.9153 24.0305 11.2004 23.248 11.3531C22.7218 10.7944 22.0248 10.4241 21.2652 10.2997C20.5057 10.1752 19.7261 10.3036 19.0474 10.6649C18.3688 11.0263 17.8291 11.6003 17.5121 12.2978C17.1951 12.9954 17.1186 13.7776 17.2945 14.5228C15.9052 14.4535 14.5462 14.0944 13.3055 13.4689C12.0649 12.8435 10.9704 11.9656 10.093 10.8922C9.79298 11.4068 9.62048 12.0035 9.62048 12.6389C9.62014 13.2109 9.7618 13.7742 10.0329 14.2787C10.304 14.7833 10.6961 15.2135 11.1745 15.5312C10.6197 15.5136 10.0771 15.3645 9.59198 15.0963V15.1411C9.59192 15.9434 9.871 16.721 10.3819 17.342C10.8927 17.963 11.6039 18.389 12.3947 18.548C11.8801 18.6865 11.3405 18.7069 10.8167 18.6076C11.0398 19.298 11.4745 19.9016 12.0598 20.3341C12.645 20.7666 13.3517 21.0063 14.0807 21.0196C12.8431 21.9857 11.3146 22.5098 9.74123 22.5075C9.46251 22.5075 9.18403 22.4914 8.90723 22.459C10.5043 23.4801 12.3635 24.0221 14.2622 24.02C20.6897 24.02 24.2035 18.7262 24.2035 14.135C24.2035 13.9858 24.1997 13.8352 24.193 13.686C24.8764 13.1945 25.4664 12.5859 25.9352 11.8886L25.9367 11.8864V11.8864Z" fill="white"/>
</g>
<defs>
<clipPath id="clip0_103_475">
<rect width="18" height="17.8994" fill="white" transform="translate(8.2041 8.20361)"/>
</clipPath>
</defs>
</svg>
