<svg width="34" height="41" viewBox="0 0 34 41" fill="none" xmlns="http://www.w3.org/2000/svg">
<g filter="url(#filter0_d_167_1886)">
<path d="M7.566 32.61C6.61533 32.61 5.89467 32.3647 5.404 31.874C4.91333 31.414 4.668 30.8007 4.668 30.034C4.668 29.206 4.898 28.4393 5.358 27.734C5.84867 26.998 6.47733 26.4153 7.244 25.986C8.01067 25.5567 8.808 25.342 9.636 25.342C10.004 25.342 10.372 25.388 10.74 25.48C11.1387 25.5413 11.522 25.6487 11.89 25.802V5.102L29.094 0.685998V24.1C29.094 25.4187 28.8027 26.584 28.22 27.596C27.668 28.5773 26.932 29.3593 26.012 29.942C25.1227 30.494 24.1413 30.77 23.068 30.77C22.1173 30.77 21.3967 30.54 20.906 30.08C20.4153 29.5893 20.17 28.9607 20.17 28.194C20.17 27.366 20.4 26.5993 20.86 25.894C21.3507 25.158 21.9793 24.5753 22.746 24.146C23.5127 23.7167 24.31 23.502 25.138 23.502C25.506 23.502 25.874 23.548 26.242 23.64C26.6407 23.7013 27.024 23.8087 27.392 23.962V3.354L28.174 3.998L12.902 8.23L13.592 7.126V25.94C13.592 27.2587 13.3007 28.424 12.718 29.436C12.166 30.4173 11.43 31.184 10.51 31.736C9.62067 32.3187 8.63933 32.61 7.566 32.61Z" fill="white"/>
</g>
<defs>
<filter id="filter0_d_167_1886" x="0.667969" y="0.6875" width="32.4258" height="39.9219" filterUnits="userSpaceOnUse" color-interpolation-filters="sRGB">
<feFlood flood-opacity="0" result="BackgroundImageFix"/>
<feColorMatrix in="SourceAlpha" type="matrix" values="0 0 0 0 0 0 0 0 0 0 0 0 0 0 0 0 0 0 127 0" result="hardAlpha"/>
<feOffset dy="4"/>
<feGaussianBlur stdDeviation="2"/>
<feComposite in2="hardAlpha" operator="out"/>
<feColorMatrix type="matrix" values="0 0 0 0 0 0 0 0 0 0 0 0 0 0 0 0 0 0 0.25 0"/>
<feBlend mode="normal" in2="BackgroundImageFix" result="effect1_dropShadow_167_1886"/>
<feBlend mode="normal" in="SourceGraphic" in2="effect1_dropShadow_167_1886" result="shape"/>
</filter>
</defs>
</svg>
