<svg width="190" height="53" viewBox="0 0 190 53" fill="none" xmlns="http://www.w3.org/2000/svg">
<rect x="0.5" y="0.5" width="189" height="52" rx="2.5" fill="url(#paint0_linear_0_1)" stroke="#2CE2E2"/>
<g filter="url(#filter0_i_0_1)">
<path d="M31.5571 37.956C31.5571 38.268 30.8251 38.52 29.3611 38.712C27.8971 38.904 26.4211 39 24.9331 39C23.4691 39 22.5211 38.916 22.0891 38.748C21.6811 38.58 21.4771 38.316 21.4771 37.956V14.808C21.4771 14.184 22.2571 13.74 23.8171 13.476C25.4011 13.212 27.3931 13.08 29.7931 13.08C32.1931 13.08 33.7411 13.092 34.4371 13.116C35.1571 13.116 35.9971 13.152 36.9571 13.224C37.9171 13.296 38.6731 13.416 39.2251 13.584C39.8011 13.752 40.4251 13.968 41.0971 14.232C41.7931 14.496 42.3331 14.844 42.7171 15.276C43.1011 15.684 43.4731 16.176 43.8331 16.752C44.4811 17.784 44.8051 19.26 44.8051 21.18C44.8051 23.076 44.4811 24.684 43.8331 26.004C43.2091 27.3 42.3691 28.284 41.3131 28.956C44.0731 33.3 45.4531 36.06 45.4531 37.236C45.4531 38.412 43.0891 39 38.3611 39C36.9931 39 36.0451 38.94 35.5171 38.82C34.9891 38.7 34.6531 38.436 34.5091 38.028L32.1691 30.612L31.5571 30.576V37.956ZM31.5571 25.032H32.4931C33.8851 25.032 34.5811 23.952 34.5811 21.792C34.5811 20.688 34.3891 19.908 34.0051 19.452C33.6451 18.996 33.2251 18.768 32.7451 18.768H31.5571V25.032ZM56.5346 30.864C56.5346 32.424 57.2786 33.204 58.7666 33.204C59.6306 33.204 60.7586 32.916 62.1506 32.34C63.5426 31.74 64.2746 31.44 64.3466 31.44C64.8026 31.44 65.4026 32.124 66.1466 33.492C66.8906 34.86 67.2626 35.868 67.2626 36.516C67.2626 37.452 66.3026 38.16 64.3826 38.64C62.4626 39.12 60.5786 39.36 58.7306 39.36C56.9066 39.36 55.3706 39.216 54.1226 38.928C52.8986 38.64 51.8906 38.28 51.0986 37.848C50.3306 37.392 49.6466 36.84 49.0466 36.192C48.4706 35.544 48.0386 34.932 47.7506 34.356C47.4626 33.756 47.2346 33.096 47.0666 32.376C46.8266 31.32 46.7066 30.228 46.7066 29.1C46.7066 24.732 47.8466 21.72 50.1266 20.064C51.2546 19.224 52.5146 18.636 53.9066 18.3C55.2986 17.964 56.9426 17.796 58.8386 17.796C64.9106 17.796 67.9466 19.908 67.9466 24.132C67.9466 28.62 64.5386 30.864 57.7226 30.864H56.5346ZM56.4626 25.608V27.984C57.1586 27.984 57.7226 27.708 58.1546 27.156C58.6106 26.604 58.8386 25.932 58.8386 25.14C58.8386 23.7 58.4666 22.98 57.7226 22.98C56.8826 22.98 56.4626 23.856 56.4626 25.608ZM91.802 27.048V38.136C91.802 38.4 91.118 38.616 89.75 38.784C88.382 38.928 86.966 39 85.502 39C84.062 39 83.126 38.94 82.694 38.82C82.286 38.676 82.082 38.448 82.082 38.136V26.688C82.082 25.608 82.034 24.9 81.938 24.564C81.866 24.228 81.794 23.928 81.722 23.664C81.554 23.208 81.254 22.98 80.822 22.98C80.15 22.98 79.814 23.304 79.814 23.952V38.136C79.814 38.4 79.13 38.616 77.762 38.784C76.418 38.928 75.014 39 73.55 39C72.11 39 71.174 38.94 70.742 38.82C70.31 38.676 70.094 38.448 70.094 38.136V20.388C70.094 19.884 70.778 19.38 72.146 18.876C73.538 18.372 75.002 18.12 76.538 18.12C78.074 18.12 78.938 18.564 79.13 19.452L79.454 21.036H79.706C80.402 19.644 81.602 18.672 83.306 18.12C84.002 17.904 84.77 17.796 85.61 17.796C88.034 17.796 89.666 18.528 90.506 19.992C91.37 21.432 91.802 23.784 91.802 27.048ZM108.465 38.676C108.033 39.084 107.049 39.288 105.513 39.288C103.977 39.288 102.705 39.192 101.697 39C100.689 38.784 99.7286 38.376 98.8166 37.776C97.0646 36.6 96.1886 34.152 96.1886 30.432V24.816H94.3886C94.1246 24.816 93.8966 24.54 93.7046 23.988C93.5126 23.436 93.4166 22.68 93.4166 21.72C93.4166 20.76 93.5606 19.92 93.8486 19.2C94.1606 18.456 94.5566 18.084 95.0366 18.084H96.1886V13.728C96.1886 12.984 96.9086 12.384 98.3486 11.928C99.8126 11.472 101.241 11.244 102.633 11.244C104.817 11.244 105.909 11.784 105.909 12.864V18.084H108.573C109.197 18.084 109.509 18.984 109.509 20.784C109.509 21.96 109.365 22.932 109.077 23.7C108.813 24.444 108.465 24.816 108.033 24.816H105.909V31.404C105.909 32.052 106.185 32.52 106.737 32.808C107.289 33.072 107.769 33.204 108.177 33.204C108.609 33.204 108.873 33.408 108.969 33.816C109.065 34.224 109.113 34.836 109.113 35.652C109.113 37.26 108.897 38.268 108.465 38.676ZM121.584 20.388V38.136C121.584 38.4 120.888 38.616 119.496 38.784C118.128 38.928 116.712 39 115.248 39C113.808 39 112.872 38.94 112.44 38.82C112.032 38.676 111.828 38.448 111.828 38.136V21.036C111.828 20.508 112.5 19.992 113.844 19.488C115.212 18.96 116.7 18.696 118.308 18.696C120.492 18.696 121.584 19.26 121.584 20.388ZM116.688 10.92C118.272 10.92 119.508 11.16 120.396 11.64C121.308 12.096 121.764 12.936 121.764 14.16C121.764 16.32 120.084 17.4 116.724 17.4C113.364 17.4 111.684 16.32 111.684 14.16C111.684 12 113.352 10.92 116.688 10.92ZM145.978 27.048V38.136C145.978 38.4 145.294 38.616 143.926 38.784C142.558 38.928 141.142 39 139.678 39C138.238 39 137.302 38.94 136.87 38.82C136.462 38.676 136.258 38.448 136.258 38.136V26.688C136.258 25.608 136.21 24.9 136.114 24.564C136.042 24.228 135.97 23.928 135.898 23.664C135.73 23.208 135.43 22.98 134.998 22.98C134.326 22.98 133.99 23.304 133.99 23.952V38.136C133.99 38.4 133.306 38.616 131.938 38.784C130.594 38.928 129.19 39 127.726 39C126.286 39 125.35 38.94 124.918 38.82C124.486 38.676 124.27 38.448 124.27 38.136V20.388C124.27 19.884 124.954 19.38 126.322 18.876C127.714 18.372 129.178 18.12 130.714 18.12C132.25 18.12 133.114 18.564 133.306 19.452L133.63 21.036H133.882C134.578 19.644 135.778 18.672 137.482 18.12C138.178 17.904 138.946 17.796 139.786 17.796C142.21 17.796 143.842 18.528 144.682 19.992C145.546 21.432 145.978 23.784 145.978 27.048ZM160.516 36.624V34.536H160.228C160.132 34.656 159.964 34.812 159.724 35.004C159.484 35.172 158.884 35.412 157.924 35.724C156.988 36.036 155.92 36.192 154.72 36.192C153.544 36.192 152.548 36.012 151.732 35.652C150.916 35.292 150.28 34.848 149.824 34.32C149.368 33.768 149.008 33.036 148.744 32.124C148.336 30.708 148.132 28.788 148.132 26.364C148.132 23.58 148.72 21.444 149.896 19.956C150.352 19.356 151.024 18.852 151.912 18.444C152.824 18.012 153.796 17.796 154.828 17.796C155.86 17.796 156.712 17.916 157.384 18.156C158.056 18.372 158.56 18.636 158.896 18.948C159.568 19.62 159.952 20.208 160.048 20.712L160.084 21.036H160.372L160.696 19.632C160.936 18.624 162.832 18.12 166.384 18.12C167.968 18.12 168.928 18.36 169.264 18.84C169.456 19.128 169.576 19.404 169.624 19.668C169.672 19.908 169.696 20.28 169.696 20.784V35.868C169.696 38.7 168.772 40.86 166.924 42.348C165.076 43.836 162.364 44.58 158.788 44.58C154.996 44.58 152.416 44.208 151.048 43.464C150.448 43.128 150.148 42.78 150.148 42.42C150.148 41.844 150.376 40.872 150.832 39.504C151.312 38.136 151.756 37.452 152.164 37.452C152.26 37.452 152.596 37.536 153.172 37.704C154.996 38.184 156.472 38.424 157.6 38.424C158.752 38.424 159.52 38.28 159.904 37.992C160.312 37.704 160.516 37.248 160.516 36.624ZM159.076 32.088C159.34 32.088 159.556 31.992 159.724 31.8C159.892 31.608 159.976 31.392 159.976 31.152V23.736C159.88 23.232 159.616 22.98 159.184 22.98C158.272 22.98 157.816 24.48 157.816 27.48C157.816 28.872 157.924 29.988 158.14 30.828C158.38 31.668 158.692 32.088 159.076 32.088Z" fill="white"/>
</g>
<defs>
<filter id="filter0_i_0_1" x="21.4775" y="10.9199" width="148.219" height="37.6602" filterUnits="userSpaceOnUse" color-interpolation-filters="sRGB">
<feFlood flood-opacity="0" result="BackgroundImageFix"/>
<feBlend mode="normal" in="SourceGraphic" in2="BackgroundImageFix" result="shape"/>
<feColorMatrix in="SourceAlpha" type="matrix" values="0 0 0 0 0 0 0 0 0 0 0 0 0 0 0 0 0 0 127 0" result="hardAlpha"/>
<feOffset dy="4"/>
<feGaussianBlur stdDeviation="2"/>
<feComposite in2="hardAlpha" operator="arithmetic" k2="-1" k3="1"/>
<feColorMatrix type="matrix" values="0 0 0 0 1 0 0 0 0 1 0 0 0 0 1 0 0 0 0.25 0"/>
<feBlend mode="normal" in2="shape" result="effect1_innerShadow_0_1"/>
</filter>
<linearGradient id="paint0_linear_0_1" x1="95" y1="0" x2="95" y2="53" gradientUnits="userSpaceOnUse">
<stop stop-color="#04F3E5"/>
<stop offset="1" stop-color="#00BFB4"/>
</linearGradient>
</defs>
</svg>
